<svg width="448" height="448" viewBox="0 0 448 448" fill="none" xmlns="http://www.w3.org/2000/svg">
<rect width="448" height="448" rx="35" fill="#7091E4"/>
<rect width="448" height="96" rx="35" fill="#3D5EB4"/>
<rect x="48" y="156" width="352" height="44" fill="white"/>
<rect x="48" y="156" width="352" height="44" fill="white"/>
<rect x="48" y="156" width="352" height="44" fill="white"/>
<path d="M48 292H400V336H48V292Z" fill="white"/>
<path d="M48 292H400V336H48V292Z" fill="white"/>
<path d="M48 292H400V336H48V292Z" fill="white"/>
<path d="M48 224H400V268H48V224Z" fill="white"/>
<path d="M48 224H400V268H48V224Z" fill="white"/>
<path d="M48 224H400V268H48V224Z" fill="white"/>
<path d="M69 48C69 59.0457 60.0457 68 49 68C37.9543 68 29 59.0457 29 48C29 36.9543 37.9543 28 49 28C60.0457 28 69 36.9543 69 48Z" fill="white"/>
<path d="M69 48C69 59.0457 60.0457 68 49 68C37.9543 68 29 59.0457 29 48C29 36.9543 37.9543 28 49 28C60.0457 28 69 36.9543 69 48Z" fill="white"/>
<path d="M193 48C193 59.0457 184.046 68 173 68C161.954 68 153 59.0457 153 48C153 36.9543 161.954 28 173 28C184.046 28 193 36.9543 193 48Z" fill="white"/>
<path d="M193 48C193 59.0457 184.046 68 173 68C161.954 68 153 59.0457 153 48C153 36.9543 161.954 28 173 28C184.046 28 193 36.9543 193 48Z" fill="white"/>
<path d="M131 48C131 59.0457 122.046 68 111 68C99.9543 68 91 59.0457 91 48C91 36.9543 99.9543 28 111 28C122.046 28 131 36.9543 131 48Z" fill="white"/>
<path d="M131 48C131 59.0457 122.046 68 111 68C99.9543 68 91 59.0457 91 48C91 36.9543 99.9543 28 111 28C122.046 28 131 36.9543 131 48Z" fill="white"/>
</svg>
